<?xml version="1.0" ?><svg id="icons" viewBox="0 0 512 512" xmlns="http://www.w3.org/2000/svg"><defs><style>.cls-1{stroke-miterlimit:10;}.cls-1,.cls-2{fill:none;stroke:#808285;stroke-width:7px;}.cls-2{stroke-linecap:round;stroke-linejoin:round;}</style></defs><g><polyline class="cls-2" points="327.67 340.13 253.67 321.26 180.42 340.13 253.67 360.57"/><path class="cls-1" d="M230.02,353.97c.72-2.38,1.85-4.58,3.29-6.54-.1-.12-.16-.26-.17-.43l-.47-10.48c-.03-.59,.59-.98,1.12-.71l8.57,4.45c2.63-1.13,5.53-1.75,8.58-1.75s5.85,.6,8.45,1.69l8.47-4.39c.52-.27,1.14,.12,1.12,.71l-.48,10.48c0,.09-.02,.18-.06,.26,1.8,2.39,3.12,5.16,3.82,8.17"/><polyline class="cls-2" points="180.42 375.02 180.42 419.9 253.67 440.34 253.67 382.12 253.67 360.57 230.02 353.97 180.42 340.13"/><polyline class="cls-2" points="253.67 382.12 253.67 440.34 327.67 419.9 327.67 373.45"/><polyline class="cls-2" points="327.67 340.13 272.26 355.43 253.67 360.57 270.92 369.34"/><polyline class="cls-2" points="272.26 355.43 327.67 340.13 368.86 362.63 327.67 373.45 295.61 381.88 270.92 369.34"/><polygon class="cls-2" points="253.67 321.26 180.42 340.13 139.24 322.3 212.48 303.05 253.67 321.26"/><polygon class="cls-2" points="139.24 364.2 212.48 383.45 253.67 360.57 180.42 340.13 139.24 364.2"/><polygon class="cls-2" points="253.67 321.26 327.31 340.04 372.76 319.52 299.52 300.27 253.67 321.26"/></g><path class="cls-1" d="M253.21,71.66c-10.81,0-32.42,2.77-32.42,12.74,0,3.88,3.05,7.48,7.48,7.48,.83,0,1.94-.27,3.05-.55,7.48-2.77,14.68-4.16,21.33-4.16,27.43,0,47.37,20.78,47.37,42.11,0,14.4-9.14,28.81-30.75,37.4-24.93,9.97-29.64,17.17-29.64,39.33,0,8.87,.56,15.8,8.59,15.8,4.15,0,8.59-3.05,8.59-9.42v-.56c-.28-2.49-.28-4.98-.28-6.92,0-14.68,4.16-17.46,20.78-24.38,29.08-12.47,41.27-31.86,41.27-50.97,0-29.37-28.25-57.9-65.37-57.9Z"/><circle class="cls-1" cx="249.74" cy="259.07" r="11.32"/></svg>